<?xml version="1.0" encoding="utf-8"?>
<!-- Generator: Adobe Illustrator 16.0.0, SVG Export Plug-In . SVG Version: 6.00 Build 0)  -->
<!DOCTYPE svg PUBLIC "-//W3C//DTD SVG 1.1//EN" "http://www.w3.org/Graphics/SVG/1.1/DTD/svg11.dtd">
<svg version="1.1" id="Layer_1" xmlns="http://www.w3.org/2000/svg" xmlns:xlink="http://www.w3.org/1999/xlink" x="0px" y="0px"
	 width="600px" height="500px" viewBox="0 0 600 500" enable-background="new 0 0 600 500" xml:space="preserve">
<polygon fill="#008A61" points="474.584,192.11 311.192,475.115 147.796,192.11 "/>
<g>
	<path fill="#7AC195" stroke="#7AC195" stroke-width="4" stroke-miterlimit="10" d="M151.43,129.052
		c0-16.611-12.41-30.167-28.257-30.167c-15.274,0-27.494,12.793-28.067,30.167v37.613h-7.638v-37.613
		c-0.573-17.374-12.982-30.167-28.257-30.167c-15.274,0-27.494,12.984-28.067,29.022v38.758h-7.637V95.067h7.637v10.501
		c6.683-8.592,16.611-14.319,28.067-14.319c13.938,0,26.158,8.401,32.076,20.811c5.919-12.41,17.566-20.811,31.886-20.811
		c19.666,0,35.895,16.993,35.895,37.804v37.613h-7.637V129.052z"/>
	<path fill="#7AC195" stroke="#7AC195" stroke-width="4" stroke-miterlimit="10" d="M248.609,155.782
		c-6.682,6.684-15.274,10.884-25.203,10.884c-19.856,0-35.704-16.802-35.704-37.613c0-20.811,15.847-37.804,35.704-37.804
		c19.666,0,35.895,16.993,35.895,37.804h-63.962c0,16.611,12.411,29.976,28.067,29.976c7.829,0,14.701-3.247,19.857-8.591
		L248.609,155.782z M196.104,121.415h54.606c-3.246-12.983-14.129-22.53-27.303-22.53
		C210.232,98.885,199.349,108.432,196.104,121.415z"/>
	<path fill="#7AC195" stroke="#7AC195" stroke-width="4" stroke-miterlimit="10" d="M351.898,152.346
		c-6.683,8.973-16.802,14.319-28.257,14.319c-19.857,0-35.705-16.802-35.705-37.613c0-20.811,15.848-37.804,35.705-37.804
		c11.455,0,21.574,5.537,28.257,14.51V23.468h7.637v143.198h-7.637V152.346z M323.642,159.028c18.711,0,28.257-14.32,28.257-29.021
		c0-15.465-10.119-31.122-28.257-31.122c-15.657,0-28.068,13.556-28.068,30.167S307.984,159.028,323.642,159.028z"/>
	<path fill="#7AC195" stroke="#7AC195" stroke-width="4" stroke-miterlimit="10" d="M388.17,23.468h7.637v143.198h-7.637V23.468z"/>
	<path fill="#7AC195" stroke="#7AC195" stroke-width="4" stroke-miterlimit="10" d="M485.354,155.782
		c-6.683,6.684-15.274,10.884-25.204,10.884c-19.855,0-35.703-16.802-35.703-37.613c0-20.811,15.848-37.804,35.703-37.804
		c19.666,0,35.895,16.993,35.895,37.804h-63.961c0,16.611,12.41,29.976,28.066,29.976c7.828,0,14.703-3.247,19.857-8.591
		L485.354,155.782z M432.847,121.415h54.605c-3.245-12.983-14.128-22.53-27.303-22.53
		C446.976,98.885,436.092,108.432,432.847,121.415z"/>
	<path fill="#7AC195" stroke="#7AC195" stroke-width="4" stroke-miterlimit="10" d="M526.678,94.485l7.792,3.137l-0.054,70.166
		l48.581-50.624l7.44,2.996l-91.87,95.765l-7.439-2.996l35.54-37.146L526.678,94.485z"/>
</g>
<polygon fill="#0F6B66" points="301.241,482.895 78.979,261.632 137.769,204.098 "/>
<g>
	<polygon fill="#7AC195" points="131.276,192.11 11.351,192.11 71.568,252.055 131.841,193.071 	"/>
</g>
<polygon fill="#7AC195" points="472.402,362.437 472.402,222.086 472.4,222.083 321.77,482.985 324.223,482.985 "/>
</svg>
